<svg width="1024" height="1024" viewBox="-30 -30 160 160" xmlns="http://www.w3.org/2000/svg">
  <!-- House Outline -->
  <path
    d="M20 45 L50 20 L80 45 V75 C80 77 78 79 76 79 H24 C22 79 20 77 20 75 V45 Z"
    stroke="#0A2342"
    stroke-width="4"
    stroke-linejoin="round"
    stroke-linecap="round"
    fill="white"
  />
  <!-- Chimney -->
  <rect x="68" y="24" width="6" height="12" fill="#0A2342" />

  <!-- Ornate Coptic Cross -->
  <g transform="translate(50, 44) scale(0.7)">
    <circle cx="0" cy="0" r="4" fill="#C5A059" />
    <circle cx="0" cy="0" r="2.5" fill="none" stroke="#0A2342" stroke-width="0.8" />

    <path d="M-3,-4 L-5,-14 C-5,-16 -2,-17 0,-17 C2,-17 5,-16 5,-14 L3,-4 Z" fill="#C5A059" />
    <circle cx="0" cy="-14" r="1.5" fill="#0A2342" />

    <path d="M-3,4 L-5,14 C-5,16 -2,17 0,17 C2,17 5,16 5,14 L3,4 Z" fill="#C5A059" />
    <circle cx="0" cy="14" r="1.5" fill="#0A2342" />

    <path d="M-4,-3 L-14,-5 C-16,-5 -17,-2 -17,0 C-17,2 -16,5 -14,5 L-4,3 Z" fill="#C5A059" />
    <circle cx="-14" cy="0" r="1.5" fill="#0A2342" />

    <path d="M4,-3 L14,-5 C16,-5 17,-2 17,0 C17,2 16,5 14,5 L4,3 Z" fill="#C5A059" />
    <circle cx="14" cy="0" r="1.5" fill="#0A2342" />

    <circle cx="-6" cy="-6" r="1" fill="#C5A059" />
    <circle cx="6" cy="-6" r="1" fill="#C5A059" />
    <circle cx="-6" cy="6" r="1" fill="#C5A059" />
    <circle cx="6" cy="6" r="1" fill="#C5A059" />
  </g>

  <!-- Arched Window under cross -->
  <path
    d="M44 72 V63 C44 59.7 46.7 57 50 57 C53.3 57 56 59.7 56 63 V72 Z"
    fill="#0A2342"
    stroke="#C5A059"
    stroke-width="1.5"
  />
  <line x1="50" y1="57" x2="50" y2="72" stroke="#fff" stroke-width="0.8" />
  <line x1="44" y1="64" x2="56" y2="64" stroke="#fff" stroke-width="0.8" />
</svg>
